<mxfile host="app.diagrams.net" agent="Mozilla/5.0 (Windows NT 10.0; Win64; x64) AppleWebKit/537.36 (KHTML, like Gecko) Chrome/137.0.0.0 Safari/537.36" version="27.0.1">
  <diagram id="C5RBs43oDa-KdzZeNtuy" name="Page-1">
    <mxGraphModel dx="786" dy="425" grid="1" gridSize="10" guides="1" tooltips="1" connect="1" arrows="1" fold="1" page="1" pageScale="1" pageWidth="827" pageHeight="1169" math="0" shadow="0">
      <root>
        <mxCell id="WIyWlLk6GJQsqaUBKTNV-0" />
        <mxCell id="WIyWlLk6GJQsqaUBKTNV-1" parent="WIyWlLk6GJQsqaUBKTNV-0" />
        <mxCell id="qlKvG49ErUsKzXDzIkuj-2" value="" style="edgeStyle=orthogonalEdgeStyle;rounded=0;orthogonalLoop=1;jettySize=auto;html=1;" edge="1" parent="WIyWlLk6GJQsqaUBKTNV-1" source="qlKvG49ErUsKzXDzIkuj-0" target="qlKvG49ErUsKzXDzIkuj-1">
          <mxGeometry relative="1" as="geometry" />
        </mxCell>
        <mxCell id="qlKvG49ErUsKzXDzIkuj-0" value="senha" style="rounded=1;whiteSpace=wrap;html=1;" vertex="1" parent="WIyWlLk6GJQsqaUBKTNV-1">
          <mxGeometry x="353.5" y="340" width="120" height="60" as="geometry" />
        </mxCell>
        <mxCell id="qlKvG49ErUsKzXDzIkuj-4" value="" style="edgeStyle=orthogonalEdgeStyle;rounded=0;orthogonalLoop=1;jettySize=auto;html=1;" edge="1" parent="WIyWlLk6GJQsqaUBKTNV-1" source="qlKvG49ErUsKzXDzIkuj-1" target="qlKvG49ErUsKzXDzIkuj-3">
          <mxGeometry relative="1" as="geometry" />
        </mxCell>
        <mxCell id="qlKvG49ErUsKzXDzIkuj-1" value="busca dos processos" style="rounded=1;whiteSpace=wrap;html=1;" vertex="1" parent="WIyWlLk6GJQsqaUBKTNV-1">
          <mxGeometry x="518" y="340" width="100" height="60" as="geometry" />
        </mxCell>
        <mxCell id="qlKvG49ErUsKzXDzIkuj-6" value="" style="edgeStyle=orthogonalEdgeStyle;rounded=0;orthogonalLoop=1;jettySize=auto;html=1;" edge="1" parent="WIyWlLk6GJQsqaUBKTNV-1" source="qlKvG49ErUsKzXDzIkuj-3" target="qlKvG49ErUsKzXDzIkuj-5">
          <mxGeometry relative="1" as="geometry" />
        </mxCell>
        <mxCell id="qlKvG49ErUsKzXDzIkuj-3" value="update do front" style="rounded=1;whiteSpace=wrap;html=1;" vertex="1" parent="WIyWlLk6GJQsqaUBKTNV-1">
          <mxGeometry x="672" y="340" width="100" height="60" as="geometry" />
        </mxCell>
        <mxCell id="qlKvG49ErUsKzXDzIkuj-8" value="" style="edgeStyle=orthogonalEdgeStyle;rounded=0;orthogonalLoop=1;jettySize=auto;html=1;" edge="1" parent="WIyWlLk6GJQsqaUBKTNV-1" source="qlKvG49ErUsKzXDzIkuj-5" target="qlKvG49ErUsKzXDzIkuj-7">
          <mxGeometry relative="1" as="geometry" />
        </mxCell>
        <mxCell id="qlKvG49ErUsKzXDzIkuj-5" value="inicia sessÃ£o" style="rounded=1;whiteSpace=wrap;html=1;direction=west;" vertex="1" parent="WIyWlLk6GJQsqaUBKTNV-1">
          <mxGeometry x="826" y="340" width="100" height="60" as="geometry" />
        </mxCell>
        <mxCell id="qlKvG49ErUsKzXDzIkuj-7" value="updates" style="rounded=1;whiteSpace=wrap;html=1;direction=west;" vertex="1" parent="WIyWlLk6GJQsqaUBKTNV-1">
          <mxGeometry x="980" y="340" width="100" height="60" as="geometry" />
        </mxCell>
      </root>
    </mxGraphModel>
  </diagram>
</mxfile>
